<svg width="235" height="57" viewBox="0 0 235 57" fill="none" xmlns="http://www.w3.org/2000/svg">
    <g clip-path="url(#clip0_3313_22491)">
        <path
            d="M39.6002 12.9288C39.3748 12.4029 39.1671 11.8904 38.9107 11.3835C38.8414 11.2249 38.7634 11.0783 38.68 10.9299C38.6148 10.7896 38.5334 10.6486 38.4468 10.5267C38.3226 10.2578 38.1526 10.0096 38.0015 9.7618C37.0803 8.19794 35.8765 6.79304 34.6283 5.61701C34.3957 5.39772 34.1672 5.16374 33.9201 4.96914C33.6259 4.6665 33.2848 4.416 32.9567 4.17205C32.0967 3.53298 31.2157 3.00517 30.3055 2.48351C29.2736 1.94081 28.2257 1.42598 27.1326 1.09183C26.5169 0.848004 25.8677 0.68861 25.2321 0.541484C23.1996 0.0664886 21.1257 -0.0968359 19.0595 0.055357C18.6722 0.0858883 18.2886 0.148116 17.9029 0.197036C17.2816 0.275814 16.6605 0.349931 16.051 0.522281C14.3182 0.874226 12.6065 1.53783 10.9956 2.37741C9.46045 3.16961 8.01393 4.19289 6.69026 5.42306C6.40845 5.6827 6.11163 5.93583 5.85088 6.22564C5.51712 6.58685 5.17708 6.94769 4.86493 7.3363C4.75925 7.45663 4.64293 7.57463 4.55373 7.71305C4.31927 7.97639 4.11463 8.27949 3.90486 8.5711C2.93666 9.89499 2.12262 11.3729 1.48534 12.9638C1.37433 13.2409 1.22867 13.5583 1.15903 13.8531C0.218791 16.4877 -0.218417 19.8131 0.106085 22.666C0.242921 23.8689 0.523527 25.0578 0.893468 26.1857C1.10064 26.8172 1.33009 27.4726 1.60798 28.063C2.14377 29.2999 2.76399 30.5362 3.41108 31.6917C3.57394 31.9825 3.73238 32.3089 3.91818 32.5768C4.21866 33.1266 4.52601 33.7104 4.86948 34.2218C5.1254 34.6026 5.4001 34.9674 5.66337 35.341C6.24047 36.1764 6.82454 37.0049 7.41541 37.8262L12.0493 44.4157L16.7315 51.0739L18.3993 53.4595C18.969 54.2877 19.514 55.1167 20.1119 55.9191C20.222 56.0669 20.353 56.2126 20.509 56.282C20.6909 56.2715 20.8445 56.0679 20.9605 55.9136C21.2253 55.5622 21.4672 55.1847 21.7298 54.8304C21.7377 54.8259 21.7468 54.8235 21.7537 54.8171C21.9712 54.6141 22.6648 53.4901 22.8926 53.1578C23.1404 52.7958 23.4059 52.452 23.6587 52.0953L24.821 50.4322L33.6833 37.8207C34.9509 35.9854 36.3717 34.207 37.5261 32.271C38.665 30.361 39.7005 28.3366 40.3428 26.1002C40.546 25.3926 40.7341 24.6551 40.8599 23.9216C41.4948 20.226 40.9492 16.3028 39.6002 12.9288ZM20.5618 35.7087C11.6615 35.7087 4.44647 28.4936 4.44647 19.5934C4.44647 10.6932 11.6616 3.47808 20.5618 3.47808C29.462 3.47808 36.6771 10.6932 36.6771 19.5934C36.6771 28.4937 29.462 35.7087 20.5618 35.7087Z"
            fill="#33CC33" />
        <path
            d="M31.4736 14.1721C31.3143 14.102 31.1185 14.0635 30.9598 14.1605C30.7998 14.2583 30.7036 14.4594 30.6589 14.663C30.616 14.858 30.653 15.3238 30.5345 15.4443C30.4452 15.4165 30.387 15.3287 30.3345 15.2377C29.2617 13.6478 28.0054 10.5217 26.3214 9.90507C26.1414 9.83289 25.947 9.7771 25.7577 9.75922C25.2902 9.71507 24.8122 9.73993 24.3435 9.74444L22.4649 9.74849L20.2995 9.749C19.9133 9.7491 19.52 9.72832 19.1351 9.75793C18.9494 9.74122 18.7631 9.7521 18.5771 9.75867C17.8839 9.72988 17.1867 9.74678 16.493 9.74883C16.0596 9.75009 15.611 9.71224 15.1809 9.77792C14.9651 9.81086 14.7543 9.87433 14.5607 9.99704C13.0297 10.8621 12.1906 12.871 11.2334 14.4533C11.0266 14.7952 10.8251 15.1712 10.5751 15.468C10.5599 15.463 10.5439 15.461 10.5296 15.4532C10.3976 15.3812 10.4359 14.6982 10.3843 14.5046C10.3462 14.3616 10.2788 14.236 10.1622 14.1735C9.92354 14.0457 9.57482 14.1816 9.34417 14.2898C9.02335 14.4032 8.35318 14.7898 8.19631 15.1647C8.16411 15.2416 8.154 15.3256 8.18248 15.4075C8.27095 15.6619 8.66812 15.8627 8.87768 15.9382C9.09992 16.0183 9.67756 16.0208 9.80023 16.2558C9.76628 16.571 9.30915 17.2526 9.16911 17.6315C8.98597 18.114 8.90478 18.6266 8.86085 19.1528C8.76762 20.2698 8.8248 21.4138 8.81401 22.5348C8.80709 23.2524 8.69465 26.7169 8.82409 27.1484C8.82733 27.1593 8.83128 27.1699 8.83488 27.1806C8.85845 27.2861 8.88343 27.4363 8.96386 27.5032C9.14553 27.6538 11.6383 27.5917 11.995 27.5557L12.119 27.3752C12.3079 26.7941 12.1873 25.8925 12.3221 25.2458C12.6379 25.2685 12.9508 25.3262 13.2665 25.3516C14.3977 25.4418 15.5368 25.5106 16.6695 25.5681C18.8246 25.6624 20.9815 25.6832 23.1375 25.6306C24.5505 25.597 25.9534 25.4575 27.3643 25.3742C27.8373 25.3463 28.3196 25.2837 28.7923 25.2914C28.8334 25.8448 28.7878 27.0171 28.9683 27.4905C29.196 27.6337 31.6631 27.6373 31.9673 27.5363C32.0051 27.5268 32.0411 27.5184 32.075 27.495C32.1774 27.4239 32.2109 27.3076 32.2388 27.1763C32.2424 27.1644 32.246 27.1524 32.2491 27.1403C32.3458 26.7764 32.2947 25.9943 32.293 25.5848C32.2906 24.5906 32.2806 23.5965 32.2629 22.6026C32.2522 21.5819 32.2718 20.5555 32.2347 19.5362C32.2207 19.1529 32.2063 18.7349 32.1354 18.3617C31.9833 17.5607 31.5724 16.9414 31.2756 16.2239C31.4994 16.1096 31.7298 16.0769 31.9647 16.0158C32.0853 15.9979 32.2149 15.9422 32.3307 15.8971C32.6464 15.774 32.8097 15.5828 32.9582 15.2357C32.5924 14.669 32.0296 14.3831 31.4736 14.1721V14.1721ZM10.4769 23.008C9.94772 23.008 9.51871 22.579 9.51871 22.0498C9.51871 21.5206 9.94772 21.0916 10.4769 21.0916C11.0062 21.0916 11.4352 21.5206 11.4352 22.0498C11.4352 22.579 11.0062 23.008 10.4769 23.008ZM12.8384 19.4193C12.275 19.4222 11.7091 19.4572 11.1461 19.4186C10.7108 19.3888 10.1722 19.2588 9.874 18.8382C9.6818 18.5673 9.5906 18.1817 9.61734 17.8265C9.63573 17.5823 9.73146 17.3836 9.89143 17.2348C9.96395 17.176 10.0274 17.14 10.0649 17.1204C11.374 16.4377 13.8587 18.756 14.3894 19.2512C14.5042 19.3583 14.5939 19.446 14.6399 19.4914C14.0101 19.4426 13.4716 19.4159 12.8385 19.4193L12.8384 19.4193ZM26.6174 11.9059C26.2123 11.4104 25.6607 11.2063 25.0944 11.2028C24.5956 11.1998 24.0142 11.4107 23.6539 11.8438C23.4522 12.0864 23.2915 12.4214 23.2963 12.7739C23.303 13.2909 23.6723 13.5792 23.9481 13.907C23.7602 14.1876 23.4534 14.4253 23.2392 14.7174C23.0771 14.9388 22.7462 15.641 22.5917 15.7445C22.5167 15.7947 22.3876 15.8139 22.3073 15.7724C22.2505 15.7429 22.245 15.7147 22.2278 15.6504C22.3026 15.1926 23.16 14.2374 23.435 13.858C23.3225 13.7297 23.1948 13.6333 23.0909 13.4917C22.8746 13.1966 22.7061 12.7764 22.8658 12.3916C22.9484 12.1924 23.0544 12.05 23.0644 11.8174C23.0274 11.7407 23.0088 11.7139 22.9334 11.6893C22.5895 11.5773 22.1316 11.6598 21.827 11.8722C21.7745 11.903 21.4543 12.098 21.3719 12.5001C21.2723 12.9859 21.6091 13.3377 21.6369 13.3657C21.6646 13.4012 21.6854 13.4353 21.7083 13.4752C21.6909 13.6759 21.45 13.8293 21.3423 13.9861C21.0603 14.3962 20.8652 14.8442 20.6931 15.3326C20.6621 15.4203 20.626 15.5704 20.568 15.6333C20.5409 15.6626 20.5432 15.6502 20.5021 15.6415C20.3957 15.5109 20.3203 15.0839 20.242 14.8892C20.1824 14.7409 20.1177 14.5909 20.0436 14.4524C19.9428 14.2642 19.7702 14.0616 19.711 13.8517C19.6923 13.7855 19.6966 13.7579 19.7226 13.6978C19.9134 13.5962 20.177 13.9233 20.3717 13.8876L20.3835 13.8446C20.3219 13.562 20.0875 13.393 20.0103 13.1239C19.8729 12.6452 20.0741 12.1618 19.7908 11.7032C19.598 11.3911 19.2463 11.2785 18.9409 11.2311C18.6575 11.1872 18.1053 11.3103 17.8847 11.5373C17.8651 11.5575 17.8391 11.5922 17.8415 11.6284C17.8573 11.859 18.3094 12.2345 18.2701 12.8406C18.2403 13.3006 17.9226 13.6073 17.6496 13.8754C17.7776 14.0477 17.9345 14.1949 18.074 14.3541C18.3216 14.6368 18.6846 15.1401 18.8338 15.5052C18.8673 15.5872 18.8697 15.6369 18.8444 15.7214C18.8036 15.7605 18.7731 15.7788 18.7222 15.7885C18.6345 15.8053 18.5256 15.8018 18.45 15.7383C18.2932 15.6064 18.0704 15.0536 17.9251 14.8389C17.6828 14.4808 17.4083 14.1989 17.104 13.923C17.2868 13.6841 17.5204 13.5299 17.649 13.2295C17.7611 12.9677 17.8121 12.6474 17.7273 12.3638C17.5991 11.9349 17.2117 11.6127 16.8804 11.4345C16.3728 11.1614 15.6621 11.1412 15.1453 11.3861C14.9726 11.5056 14.8 11.6252 14.6273 11.7447C14.4982 11.9423 14.369 12.1399 14.2398 12.3374C14.1544 12.5859 14.145 12.8403 14.2291 13.0924C14.3382 13.4197 14.5699 13.6595 14.8044 13.8544C14.5749 14.1336 14.3129 14.3995 14.1045 14.7006C13.9455 14.9304 13.8258 15.2312 13.65 15.4377C13.5897 15.5085 13.5335 15.5152 13.4524 15.5164C13.1533 15.521 12.1078 15.4291 11.8783 15.2206C11.8316 15.0549 11.8667 14.9169 11.9282 14.7621C12.0032 14.5732 12.1158 14.4049 12.2153 14.2341C12.4602 13.6766 12.8202 12.9411 13.3014 12.199C13.5687 11.7868 13.8334 11.4342 13.9042 11.3406C14.1359 11.034 14.3546 10.7692 14.5469 10.5477C14.6492 10.489 14.7514 10.4304 14.8536 10.3718C15.1536 10.0761 17.1315 10.1694 17.5525 10.171C17.7456 10.1717 17.9778 10.1251 18.1652 10.1533C18.5353 10.2089 18.9355 10.0879 19.2965 10.1796C19.3276 10.1875 19.3669 10.1765 19.3979 10.1716C19.8772 10.0959 20.7533 10.1683 21.2702 10.1754C21.9336 10.1845 22.1798 10.1648 22.6554 10.1602C22.7728 10.1591 22.8707 10.1589 22.965 10.1595C23.2319 10.1611 23.4612 10.1656 23.637 10.1701C23.7968 10.1742 23.911 10.1782 23.9446 10.1793C24.9658 10.2131 25.2805 10.0408 25.7495 10.239C26.0407 10.362 26.241 10.5643 26.5805 10.9072C26.7067 11.0347 26.8194 11.1643 27.0418 11.4262C27.4221 11.8739 27.692 12.2168 28.0228 12.6725C28.132 12.8229 28.2741 13.0278 28.4395 13.2986C28.5956 13.5544 28.7101 13.7881 28.9392 14.2556C29.1265 14.6379 29.2055 14.8217 29.14 15.0272C29.1005 15.1513 29.0313 15.2353 28.9896 15.2663C28.72 15.4663 27.8344 15.5017 27.4995 15.5106C27.3731 15.2897 27.225 15.0549 27.0517 14.8126C26.7968 14.4562 26.5375 14.154 26.2952 13.9017C26.3505 13.8362 26.4201 13.7362 26.5172 13.6275C26.7416 13.3765 26.9059 13.1426 26.9128 12.7519C26.9188 12.4189 26.8087 12.1399 26.6175 11.9058L26.6174 11.9059ZM30.5617 23.008C30.0325 23.008 29.6035 22.579 29.6035 22.0498C29.6035 21.5206 30.0325 21.0916 30.5617 21.0916C31.091 21.0916 31.52 21.5206 31.52 22.0498C31.52 22.579 31.091 23.008 30.5617 23.008ZM31.4762 17.8265C31.5029 18.1817 31.4117 18.5674 31.2195 18.8383C30.9213 19.2588 30.3827 19.3888 29.9474 19.4186C29.3844 19.4572 28.8186 19.4222 28.2551 19.4193C27.6219 19.416 27.0835 19.4426 26.4537 19.4914C26.4997 19.4461 26.5894 19.3583 26.7042 19.2512C27.2349 18.756 29.7195 16.4378 31.0286 17.1204C31.0662 17.14 31.1296 17.176 31.2021 17.2349C31.3621 17.3836 31.4578 17.5823 31.4762 17.8265L31.4762 17.8265Z"
            fill="#33CC33" />
    </g>
    <path d="M235 17.1263H230.753V28.4388H229.046V17.1263H224.834V15.6028H235V17.1263Z" fill="#33CC33" />
    <path d="M222.803 28.4388H221.096V15.6028H222.803V28.4388Z" fill="#33CC33" />
    <path
        d="M218.084 28.4388H216.473V17.6954H216.438L212.743 28.4388H211.219L207.542 17.5203H207.489V28.4388H205.878V15.6028H208.417L211.456 24.6913C211.794 25.7012 211.99 26.3345 212.042 26.5913H212.077C212.235 26.0952 212.463 25.4093 212.76 24.5337L215.825 15.6028H218.084V28.4388Z"
        fill="#33CC33" />
    <path d="M199.119 17.1263H194.872V28.4388H193.165V17.1263H188.953V15.6028H199.119V17.1263Z" fill="#33CC33" />
    <path
        d="M188.349 28.4388H186.212C184.934 26.4191 184.14 25.1787 183.831 24.7176C183.522 24.2565 183.195 23.8624 182.85 23.5356C182.512 23.2028 182.191 22.9927 181.887 22.9051C181.589 22.8176 181.192 22.7738 180.696 22.7738H178.735V28.4388H177.036V15.6028H182.719C183.495 15.6028 184.146 15.6524 184.671 15.7516C185.197 15.8509 185.658 16.061 186.055 16.3821C186.452 16.6973 186.755 17.0971 186.965 17.5816C187.181 18.0661 187.289 18.5768 187.289 19.1139C187.289 20.0828 186.983 20.8621 186.37 21.4517C185.757 22.0412 184.864 22.4148 183.691 22.5724V22.6074C184.549 22.9869 185.354 23.7661 186.107 24.9452L188.349 28.4388ZM178.735 21.2503H182.377C183.113 21.2503 183.694 21.189 184.12 21.0664C184.552 20.938 184.896 20.6928 185.153 20.3309C185.41 19.969 185.538 19.5633 185.538 19.1139C185.538 18.5301 185.325 18.034 184.899 17.6254C184.473 17.2168 183.77 17.0125 182.789 17.0125H178.735V21.2503Z"
        fill="#33CC33" />
    <path
        d="M174.156 28.4388H172.448V22.3973H165.776V28.4388H164.078V15.6028H165.776V20.8738H172.448V15.6028H174.156V28.4388Z"
        fill="#33CC33" />
    <path
        d="M162.659 28.439H160.742L159.236 24.534H153.877L152.459 28.439H150.664L155.593 15.603H157.423L162.659 28.439ZM158.719 23.1856C157.669 20.407 157.076 18.831 156.942 18.4574C156.808 18.078 156.659 17.5731 156.495 16.9427H156.452C156.288 17.8066 156.069 18.6063 155.795 19.3418L154.359 23.1856H158.719ZM159.07 14.4385H157.458V12.6436H159.07V14.4385ZM155.83 14.4385H154.21V12.6436H155.83V14.4385Z"
        fill="#33CC33" />
    <path d="M149.815 17.1263H142.854V21.1014H148.887V22.6249H142.854V28.4388H141.155V15.6028H149.815V17.1263Z"
        fill="#33CC33" />
    <path
        d="M133.284 28.4388H131.541L124.834 18.3609H124.799V28.4388H123.188V15.6028H124.922L131.629 25.6807H131.664V15.6028H133.284V28.4388Z"
        fill="#919292" />
    <path
        d="M120.815 28.4388H111.228V15.6028H120.518V17.1263H112.926V21.0489H120.027V22.5724H112.926V26.9153H120.815V28.4388Z"
        fill="#919292" />
    <path
        d="M106.85 19.3679C106.78 18.5507 106.485 17.9378 105.965 17.5292C105.446 17.1148 104.702 16.9075 103.733 16.9075C102.857 16.9075 102.145 17.071 101.596 17.3979C101.048 17.7248 100.773 18.2005 100.773 18.8251C100.773 19.3796 100.983 19.794 101.404 20.0684C101.83 20.3369 102.641 20.6054 103.838 20.8739C104.9 21.1074 105.767 21.3467 106.438 21.5919C107.109 21.8371 107.684 22.2194 108.163 22.7389C108.642 23.2526 108.881 23.9443 108.881 24.814C108.881 25.9173 108.44 26.8337 107.559 27.5634C106.683 28.293 105.539 28.6579 104.127 28.6579C102.323 28.6579 100.972 28.2551 100.073 27.4495C99.1796 26.644 98.7068 25.5992 98.6543 24.315L100.265 24.1749C100.341 25.2022 100.738 25.9523 101.456 26.4251C102.174 26.8921 103.041 27.1256 104.057 27.1256C105.008 27.1256 105.776 26.93 106.359 26.5389C106.949 26.1479 107.244 25.6167 107.244 24.9454C107.244 24.2449 106.937 23.7342 106.324 23.4131C105.711 23.0921 104.681 22.7769 103.234 22.4675C101.792 22.1523 100.753 21.7116 100.117 21.1454C99.4803 20.5792 99.1621 19.8437 99.1621 18.9389C99.1621 17.9115 99.5649 17.0622 100.37 16.391C101.176 15.7197 102.273 15.384 103.663 15.384C105.087 15.384 106.231 15.7197 107.095 16.391C107.965 17.0564 108.426 18.0049 108.478 19.2366L106.85 19.3679Z"
        fill="#919292" />
    <path
        d="M96.4041 28.4388H94.6967V22.3973H88.0248V28.4388H86.3262V15.6028H88.0248V20.8738H94.6967V15.6028H96.4041V28.4388Z"
        fill="#919292" />
    <path
        d="M84.1809 24.3675C83.8074 25.8093 83.1536 26.8863 82.2196 27.5984C81.2915 28.3047 80.1766 28.6579 78.8749 28.6579C76.7735 28.6579 75.2413 28.0012 74.2781 26.6878C73.3208 25.3686 72.8422 23.7838 72.8422 21.9334C72.8422 19.8845 73.4055 18.2822 74.532 17.1264C75.6645 15.9648 77.1179 15.384 78.8924 15.384C80.1416 15.384 81.2098 15.7022 82.0971 16.3384C82.9843 16.9747 83.606 17.9057 83.9621 19.1315L82.2984 19.5255C82.0183 18.6324 81.5921 17.9612 81.0201 17.5117C80.4481 17.0622 79.733 16.8375 78.8749 16.8375C77.474 16.8375 76.4116 17.2986 75.6878 18.2209C74.964 19.1374 74.6021 20.369 74.6021 21.9159C74.6021 23.7021 74.9815 25.03 75.7403 25.8998C76.505 26.7695 77.5003 27.2044 78.7261 27.2044C79.7301 27.2044 80.5444 26.933 81.1689 26.3901C81.7994 25.8472 82.2401 25.03 82.4911 23.9385L84.1809 24.3675Z"
        fill="#919292" />
    <path
        d="M71.9491 28.4388H70.0316L68.5256 24.5337H63.167L61.7486 28.4388H59.9536L64.8831 15.6028H66.7131L71.9491 28.4388ZM68.009 23.1853C66.9583 20.4068 66.3658 18.8308 66.2315 18.4572C66.0973 18.0778 65.9484 17.5728 65.785 16.9424H65.7412C65.5778 17.8063 65.3589 18.606 65.0845 19.3415L63.6486 23.1853H68.009Z"
        fill="#919292" />
    <path
        d="M57.0117 19.3679C56.9417 18.5507 56.6469 17.9378 56.1274 17.5292C55.6079 17.1148 54.8636 16.9075 53.8947 16.9075C53.0191 16.9075 52.3069 17.071 51.7582 17.3979C51.2095 17.7248 50.9352 18.2005 50.9352 18.8251C50.9352 19.3796 51.1453 19.794 51.5656 20.0684C51.9917 20.3369 52.8031 20.6054 53.9997 20.8739C55.0621 21.1074 55.9289 21.3467 56.6002 21.5919C57.2715 21.8371 57.8465 22.2194 58.3251 22.7389C58.8038 23.2526 59.0431 23.9443 59.0431 24.814C59.0431 25.9173 58.6024 26.8337 57.721 27.5634C56.8454 28.293 55.7013 28.6579 54.2887 28.6579C52.485 28.6579 51.1337 28.2551 50.2347 27.4495C49.3416 26.644 48.8688 25.5992 48.8163 24.315L50.4274 24.1749C50.5032 25.2022 50.9002 25.9523 51.6181 26.4251C52.3361 26.8921 53.2029 27.1256 54.2186 27.1256C55.1701 27.1256 55.9377 26.93 56.5214 26.5389C57.111 26.1479 57.4057 25.6167 57.4057 24.9454C57.4057 24.2449 57.0993 23.7342 56.4864 23.4131C55.8735 23.0921 54.8432 22.7769 53.3956 22.4675C51.9538 22.1523 50.9148 21.7116 50.2785 21.1454C49.6422 20.5792 49.3241 19.8437 49.3241 18.9389C49.3241 17.9115 49.7269 17.0622 50.5324 16.391C51.338 15.7197 52.4354 15.384 53.8246 15.384C55.2489 15.384 56.393 15.7197 57.2569 16.391C58.1266 17.0564 58.5878 18.0049 58.6403 19.2366L57.0117 19.3679Z"
        fill="#919292" />
    <path
        d="M124.619 35.3673L124.267 36.309C124.014 36.1615 123.766 36.0878 123.524 36.0878C123.142 36.0878 122.853 36.2599 122.656 36.604C122.459 36.9444 122.361 37.4228 122.361 38.0393V41.1991H121.34V35.1801H122.27V36.0878H122.293C122.618 35.3919 123.044 35.0439 123.569 35.0439C123.917 35.0439 124.267 35.1517 124.619 35.3673Z"
        fill="#919292" />
    <path
        d="M120.137 38.4477H115.627C115.669 39.1134 115.858 39.622 116.194 39.9738C116.535 40.3255 116.958 40.5014 117.465 40.5014C117.855 40.5014 118.182 40.3992 118.447 40.195C118.711 39.987 118.914 39.675 119.054 39.259L120.103 39.3894C119.933 40.0173 119.621 40.4995 119.167 40.8361C118.713 41.1727 118.146 41.341 117.465 41.341C116.561 41.341 115.854 41.0649 115.344 40.5127C114.837 39.9567 114.583 39.1985 114.583 38.2378C114.583 37.2886 114.829 36.5189 115.321 35.9289C115.816 35.3389 116.512 35.0439 117.409 35.0439C117.847 35.0439 118.269 35.1404 118.674 35.3333C119.082 35.5261 119.428 35.8552 119.712 36.3204C119.995 36.7818 120.137 37.4909 120.137 38.4477ZM119.088 37.6081C119.046 36.9955 118.855 36.5548 118.515 36.2863C118.178 36.014 117.809 35.8779 117.409 35.8779C116.928 35.8779 116.533 36.0386 116.223 36.3601C115.913 36.6815 115.733 37.0976 115.684 37.6081H119.088Z"
        fill="#919292" />
    <path
        d="M113.358 41.1992H112.331V37.3983C112.331 36.9066 112.225 36.5379 112.013 36.292C111.802 36.0462 111.486 35.9233 111.066 35.9233C110.65 35.9233 110.278 36.0689 109.948 36.3601C109.623 36.6475 109.461 37.1638 109.461 37.9088V41.1992H108.439V32.8826H109.461V35.8666C109.945 35.3182 110.55 35.044 111.276 35.044C111.665 35.044 112.038 35.1234 112.394 35.2822C112.749 35.4411 112.999 35.685 113.142 36.0141C113.286 36.3431 113.358 36.8007 113.358 37.3869V41.1992Z"
        fill="#919292" />
    <path
        d="M107.555 41.1877C107.252 41.2482 106.997 41.2784 106.789 41.2784C106.342 41.2784 106.017 41.2009 105.813 41.0458C105.609 40.887 105.484 40.6866 105.439 40.4445C105.393 40.2025 105.37 39.8659 105.37 39.4347V35.9685H104.627V35.18H105.37V33.6823L106.392 33.064V35.18H107.413V35.9685H106.392V39.4915C106.392 39.794 106.422 40.0096 106.482 40.1382C106.547 40.263 106.706 40.3254 106.959 40.3254C107.106 40.3254 107.258 40.3103 107.413 40.28L107.555 41.1877Z"
        fill="#919292" />
    <path
        d="M103.969 38.4477H99.4591C99.5007 39.1134 99.6898 39.622 100.026 39.9738C100.367 40.3255 100.79 40.5014 101.297 40.5014C101.687 40.5014 102.014 40.3992 102.279 40.195C102.543 39.987 102.746 39.675 102.886 39.259L103.935 39.3894C103.765 40.0173 103.453 40.4995 102.999 40.8361C102.545 41.1727 101.978 41.341 101.297 41.341C100.393 41.341 99.686 41.0649 99.1755 40.5127C98.6687 39.9567 98.4153 39.1985 98.4153 38.2378C98.4153 37.2886 98.6611 36.5189 99.1528 35.9289C99.6482 35.3389 100.344 35.0439 101.24 35.0439C101.679 35.0439 102.101 35.1404 102.506 35.3333C102.914 35.5261 103.26 35.8552 103.544 36.3204C103.827 36.7818 103.969 37.4909 103.969 38.4477ZM102.92 37.6081C102.878 36.9955 102.687 36.5548 102.347 36.2863C102.01 36.014 101.641 35.8779 101.24 35.8779C100.76 35.8779 100.365 36.0386 100.055 36.3601C99.7447 36.6815 99.565 37.0976 99.5158 37.6081H102.92Z"
        fill="#919292" />
    <path
        d="M97.2014 40.3879C97.2014 41.2426 97.1163 41.8799 96.9461 42.2997C96.7759 42.7233 96.4734 43.0523 96.0384 43.2868C95.6035 43.5213 95.0835 43.6385 94.4784 43.6385C93.7976 43.6385 93.2303 43.4872 92.7765 43.1847C92.3226 42.8821 92.0957 42.3867 92.0957 41.6984L93.0885 41.8515C93.1263 42.1692 93.2587 42.4075 93.4856 42.5663C93.7163 42.7252 94.0434 42.8046 94.467 42.8046C94.9965 42.8046 95.3841 42.6968 95.63 42.4812C95.8758 42.2656 96.0252 42.0028 96.0781 41.6927C96.1349 41.3826 96.1632 40.9552 96.1632 40.4106C95.7207 40.9363 95.1629 41.1991 94.4897 41.1991C93.7068 41.1991 93.0771 40.9098 92.6006 40.3312C92.1279 39.7525 91.8915 39.0226 91.8915 38.1414C91.8915 37.2564 92.1222 36.5189 92.5836 35.9289C93.045 35.3389 93.6841 35.0439 94.501 35.0439C95.2121 35.0439 95.7907 35.3295 96.237 35.9006H96.2597V35.1801H97.2014V40.3879ZM94.5861 40.3652C95.0211 40.3652 95.4068 40.1931 95.7434 39.849C96.08 39.501 96.2483 38.9205 96.2483 38.1074C96.2483 37.3888 96.0876 36.8385 95.7661 36.4565C95.4447 36.0708 95.0475 35.8779 94.5748 35.8779C94.0907 35.8779 93.6955 36.0745 93.3891 36.4679C93.0866 36.8612 92.9353 37.4001 92.9353 38.0847C92.9353 38.8751 93.0941 39.4537 93.4118 39.8206C93.7333 40.1837 94.1247 40.3652 94.5861 40.3652Z"
        fill="#919292" />
    <path
        d="M88.255 35.0439C89.0681 35.0439 89.7413 35.3087 90.2746 35.8382C90.8116 36.3676 91.0802 37.1203 91.0802 38.096C91.0802 39.2798 90.7908 40.1175 90.2122 40.6091C89.6336 41.097 88.9812 41.341 88.255 41.341C87.4948 41.341 86.8349 41.0895 86.2751 40.5864C85.7154 40.0834 85.4355 39.2854 85.4355 38.1924C85.4355 37.1335 85.706 36.3449 86.2468 35.8268C86.7876 35.3049 87.457 35.0439 88.255 35.0439ZM88.255 40.5014C88.8374 40.5014 89.2799 40.2858 89.5825 39.8546C89.8851 39.4235 90.0363 38.8562 90.0363 38.1527C90.0363 37.4001 89.8643 36.8328 89.5201 36.4508C89.1797 36.0689 88.758 35.8779 88.255 35.8779C87.7369 35.8779 87.3114 36.0726 86.9786 36.4622C86.6458 36.848 86.4794 37.4247 86.4794 38.1924C86.4794 38.9564 86.6477 39.5332 86.9843 39.9227C87.3246 40.3085 87.7482 40.5014 88.255 40.5014Z"
        fill="#919292" />
    <path d="M84.7661 33.8697H82.0147V41.1992H80.9085V33.8697H78.1798V32.8826H84.7661V33.8697Z" fill="#919292" />
    <path
        d="M74.2315 38.4477H69.7214C69.763 39.1134 69.9521 39.622 70.2887 39.9738C70.6291 40.3255 71.0527 40.5014 71.5595 40.5014C71.949 40.5014 72.2762 40.3992 72.5409 40.195C72.8057 39.987 73.008 39.675 73.1479 39.259L74.1974 39.3894C74.0272 40.0173 73.7152 40.4995 73.2614 40.8361C72.8075 41.1727 72.2402 41.341 71.5595 41.341C70.6556 41.341 69.9484 41.0649 69.4378 40.5127C68.931 39.9567 68.6776 39.1985 68.6776 38.2378C68.6776 37.2886 68.9234 36.5189 69.4151 35.9289C69.9105 35.3389 70.6064 35.0439 71.5028 35.0439C71.9415 35.0439 72.3632 35.1404 72.7678 35.3333C73.1763 35.5261 73.5223 35.8552 73.806 36.3204C74.0896 36.7818 74.2315 37.4909 74.2315 38.4477ZM73.182 37.6081C73.1404 36.9955 72.9494 36.5548 72.609 36.2863C72.2724 36.014 71.9036 35.8779 71.5028 35.8779C71.0224 35.8779 70.6272 36.0386 70.3171 36.3601C70.007 36.6815 69.8273 37.0976 69.7782 37.6081H73.182Z"
        fill="#919292" />
    <path
        d="M68.0819 35.1799L65.807 41.199H64.854L62.5677 35.1799H63.6456L64.888 38.6631C65.1225 39.3212 65.2624 39.7675 65.3078 40.002H65.3305C65.391 39.7599 65.495 39.4347 65.6425 39.0262L67.0381 35.1799H68.0819Z"
        fill="#919292" />
    <path d="M61.6261 41.1992H60.605V35.1801H61.6261V41.1992ZM61.6261 34.0399H60.605V32.8826H61.6261V34.0399Z"
        fill="#919292" />
    <path
        d="M59.9809 35.3673L59.6292 36.309C59.3758 36.1615 59.128 36.0878 58.886 36.0878C58.504 36.0878 58.2147 36.2599 58.018 36.604C57.8214 36.9444 57.723 37.4228 57.723 38.0393V41.1991H56.7019V35.1801H57.6323V36.0878H57.655C57.9802 35.3919 58.4057 35.0439 58.9314 35.0439C59.2793 35.0439 59.6292 35.1517 59.9809 35.3673Z"
        fill="#919292" />
    <path
        d="M48.493 32.8826H51.3636C51.8666 32.8826 52.2996 32.909 52.6627 32.962C53.0258 33.0112 53.3718 33.136 53.7008 33.3364C54.0337 33.5331 54.323 33.8054 54.5688 34.1533C54.8184 34.5013 55.0132 34.9021 55.1531 35.356C55.2968 35.806 55.3687 36.3525 55.3687 36.9955C55.3687 38.2208 55.0775 39.2287 54.4951 40.0192C53.9126 40.8058 52.9104 41.1992 51.4884 41.1992H48.493V32.8826ZM49.5936 40.2121H51.3749C51.738 40.2121 52.0613 40.1894 52.345 40.144C52.6324 40.0986 52.9217 39.9757 53.213 39.7752C53.508 39.5748 53.7519 39.2458 53.9448 38.7881C54.1377 38.3305 54.2341 37.7254 54.2341 36.9728C54.2341 36.5568 54.1963 36.1691 54.1206 35.8098C54.0488 35.4468 53.9126 35.1177 53.7122 34.8227C53.5155 34.524 53.2886 34.3065 53.0314 34.1703C52.7743 34.0304 52.5227 33.9453 52.2769 33.9151C52.0349 33.8848 51.7229 33.8697 51.3409 33.8697H49.5936V40.2121Z"
        fill="#919292" />
    <defs>
        <clipPath id="clip0_3313_22491">
            <rect width="41.1241" height="56.2821" fill="white" />
        </clipPath>
    </defs>
</svg>